# xmcd
#
# Track frame offsets:
#	150
#	21915
#	35814
#	47712
#	60230
#	75175
#	88867
#	111340
#	124069
#	136388
#	146928
#	170045
#	189224
#	212609
#	224468
#	236678
#	263049
#	276303
#	300578
#	316914
#
# Disc length: 4374 seconds
#
# Revision: 1
# Processed by: cddbd v1.5.2PL0 Copyright (c) Steve Scherf et al.
# Submitted via: FairStars CD Ripper 1.80
#
DISCID=25111414
DTITLE=Various Artist - Battle Of The Blues cd1
DYEAR=2014
DGENRE=Blues
TTITLE0=Kirk Fletcher - I Smell Trouble
TTITLE1=Bo Diddley - Before You Accuse Me
TTITLE2=Howlin' Wolf - Don't Mess with My Baby
TTITLE3=John Lee Hooker - Leave My Wife Alone
TTITLE4=Johnny 'Guitar' Watson - Don't Touch Me
TTITLE5=Big Bill Broonzy - Get Back
TTITLE6=Lightnin' Hopkins - You Better Watch Yourself
TTITLE7=Sonny Boy Williamson - Keep It to Yourself
TTITLE8=Chuck Berry - You Can't Catch Me
TTITLE9=Buddy Guy - I Got My Eyes on You
TTITLE10=James Booker - One Hell of a Nerve
TTITLE11=Lucky Peterson - Ain't Going to Boss Me
TTITLE12=Elmore James Jr. - Don't Get Mad
TTITLE13=Willie Mabon - I'm Mad
TTITLE14=Jimmy Rogers - What Have I Done
TTITLE15=Willie Dixon - Go Easy
TTITLE16=Freddy King - You Can't Hide
TTITLE17=Kirk Fletcher - I Ain't Doing Nothing Wrong
TTITLE18=Elmore James Jr. - I'll Get You
TTITLE19=Billy Love - You're Gonna Cry
EXTD=
EXTT0=
EXTT1=
EXTT2=
EXTT3=
EXTT4=
EXTT5=
EXTT6=
EXTT7=
EXTT8=
EXTT9=
EXTT10=
EXTT11=
EXTT12=
EXTT13=
EXTT14=
EXTT15=
EXTT16=
EXTT17=
EXTT18=
EXTT19=
PLAYORDER=
